<svg width="24" height="24" viewBox="0 0 24 24" fill="none" xmlns="http://www.w3.org/2000/svg">
    <g clip-path="url(#clip0_752_91245)">
        <path d="M8.44727 0.107817C8.3582 0.164066 8.24102 0.304691 8.18477 0.421879C8.08164 0.623442 8.07695 0.670317 8.07695 1.97813V3.32813H7.47695C7.14414 3.32813 6.75039 3.35157 6.5957 3.37969C5.75664 3.53438 5.0207 4.21407 4.79102 5.05313C4.71133 5.33907 4.70195 5.57813 4.70195 7.97344V10.5844L4.52852 10.6172C4.26133 10.6641 4.05977 10.8234 3.92852 11.0813C3.82539 11.2875 3.81133 11.3766 3.81133 11.7984V12.2813H2.45195H1.08789L0.975391 12.3984C0.820703 12.5484 0.820703 12.7641 0.975391 12.9141L1.08789 13.0313H2.44727H3.80195L3.8207 13.5563C3.83945 14.1797 3.91445 14.3813 4.20039 14.5688C4.3832 14.6906 4.41602 14.6953 5.18008 14.7094L5.96758 14.7234V16.3313V17.9344L6.08945 18.1828C6.23945 18.4828 6.49258 18.675 6.81602 18.7453C6.94258 18.7734 7.3832 18.7969 7.78633 18.7969L8.52227 18.8016L8.83164 19.2563C9.00508 19.5047 9.14102 19.7297 9.14102 19.7578C9.13633 19.7813 8.81758 19.9031 8.42852 20.0203C8.03945 20.1375 7.66445 20.2734 7.59414 20.3203C7.52383 20.3672 7.41133 20.4938 7.35039 20.6016C7.2332 20.7984 7.2332 20.8031 7.2332 22.0734C7.2332 23.2313 7.24258 23.3625 7.32227 23.5219C7.42539 23.7188 7.52383 23.8172 7.73477 23.925C7.8707 23.9906 8.33008 24 12.4035 24H16.9176L17.1145 23.8734C17.2457 23.7891 17.3535 23.6625 17.4285 23.5125C17.5457 23.2828 17.5457 23.2594 17.5457 22.0828C17.541 20.3297 17.5879 20.3906 15.9332 19.8984C15.7035 19.8281 15.5395 19.7578 15.5629 19.7391C15.591 19.725 15.7551 19.5094 15.9285 19.2656L16.2426 18.8203L17.1145 18.7922C17.8926 18.7734 18.0145 18.7594 18.1832 18.6656C18.4457 18.5297 18.6941 18.2297 18.7598 17.9766C18.7926 17.8453 18.8113 17.2031 18.8113 16.2469V14.7188H19.5285C20.302 14.7188 20.5035 14.6672 20.7191 14.4328C20.8832 14.25 20.9207 14.0859 20.9207 13.5422V13.0313H22.1629H23.4098L23.5223 12.9141C23.677 12.7641 23.677 12.5484 23.5223 12.3984L23.4098 12.2813H22.1629H20.9207V11.7656C20.9207 11.4328 20.8973 11.1938 20.8551 11.0953C20.7707 10.8891 20.5316 10.6969 20.2832 10.6313L20.077 10.575V8.03907C20.077 6.02344 20.0629 5.44219 20.0066 5.18907C19.8613 4.5 19.3785 3.88125 18.7551 3.58594C18.291 3.36563 18.0473 3.32813 17.0535 3.32813C15.891 3.32813 15.9566 3.26719 15.9426 4.30313L15.9285 5.08594L12.3801 5.1L8.82695 5.10938V2.93438C8.82695 0.993753 8.83633 0.754692 8.90195 0.731255C8.94414 0.717192 10.5191 0.703129 12.4082 0.703129C15.0145 0.703129 15.8535 0.717192 15.8957 0.759378C15.9332 0.796879 15.952 1.03594 15.952 1.52813V2.24532L16.0738 2.33907C16.2145 2.45157 16.3176 2.46094 16.4863 2.38594C16.6832 2.29688 16.7113 2.1375 16.6926 1.30313C16.6785 0.557816 16.6738 0.525003 16.552 0.342192C16.3129 -0.0187454 16.5566 3.8147e-06 12.352 3.8147e-06H8.60664L8.44727 0.107817ZM8.07695 4.65469C8.07695 5.17031 8.09102 5.25938 8.18477 5.44219C8.25508 5.56875 8.36289 5.68594 8.48008 5.75157C8.65352 5.85 8.71914 5.85938 9.59102 5.85938H10.5145V6.21094V6.5625H8.62539H6.73633L6.4832 6.7125C6.28633 6.83438 6.19727 6.92344 6.09883 7.12032L5.96758 7.36875V8.42344V9.47344L6.08477 9.58594C6.15508 9.66094 6.25352 9.70313 6.34258 9.70313C6.43164 9.70313 6.53008 9.66094 6.60039 9.58594C6.71758 9.47344 6.71758 9.46875 6.71758 8.49375C6.71758 7.58438 6.72227 7.50938 6.81133 7.41563C6.86289 7.36407 6.97539 7.30313 7.05508 7.28906C7.13945 7.275 9.60039 7.27032 12.5207 7.275L17.8363 7.28906L17.9488 7.42031L18.0613 7.55157V9.91875V12.2813H16.5613H15.0613V11.2875C15.0613 10.3313 15.0566 10.2891 14.9582 10.1859L14.8598 10.0781H12.3848C10.0223 10.0781 9.90977 10.0828 9.80664 10.1672C9.69414 10.2563 9.69414 10.2703 9.68008 11.2688L9.66602 12.2813H8.19414H6.72227L6.7082 11.5313C6.68945 10.5844 6.72227 10.6219 5.98633 10.6031L5.44727 10.5844L5.46133 7.93125L5.47539 5.27344L5.60664 5.01563C5.76602 4.70625 5.96758 4.48594 6.23945 4.32656C6.57227 4.12969 6.79258 4.08282 7.4582 4.08282L8.07695 4.07813V4.65469ZM18.352 4.22813C18.6941 4.3875 19.0176 4.71094 19.177 5.05313L19.3035 5.32032L19.3176 7.95469L19.3316 10.5938H19.0738H18.816L18.802 8.9625C18.7879 7.39688 18.7832 7.32656 18.6848 7.14844C18.5582 6.90938 18.366 6.72656 18.1457 6.6375C17.9957 6.57188 17.6863 6.5625 16.116 6.5625H14.2645V6.21094V5.85938H15.1551C16.1441 5.85938 16.2707 5.83125 16.4816 5.58282C16.6551 5.37657 16.702 5.16094 16.702 4.57969V4.06875L17.3957 4.0875C18.0238 4.10157 18.1082 4.11094 18.352 4.22813ZM13.5145 6.21094V6.5625H12.3895H11.2645V6.21094V5.85938H12.3895H13.5145V6.21094ZM14.3113 11.5547V12.2813H13.5379H12.7645V12.0563C12.7645 11.6859 12.5441 11.4844 12.2488 11.5828C12.066 11.6484 12.0145 11.7516 12.0145 12.0422V12.2813H11.2176H10.4207V11.5547V10.8281H12.366H14.3113V11.5547ZM5.96758 11.8125V12.2813H5.26445H4.56133V11.8688C4.56133 11.6109 4.58008 11.4375 4.61758 11.4C4.65508 11.3625 4.88008 11.3438 5.3207 11.3438H5.96758V11.8125ZM20.1613 11.8219L20.1754 12.2813H19.491H18.8113V11.8125V11.3391L19.4816 11.3531L20.1473 11.3672L20.1613 11.8219ZM5.96758 13.5V13.9688H5.3207C4.88008 13.9688 4.65508 13.95 4.61758 13.9125C4.58008 13.875 4.56133 13.7016 4.56133 13.4438V13.0313H5.26445H5.96758V13.5ZM9.68008 14.0438C9.69414 15.0422 9.69414 15.0563 9.80664 15.1453C9.90977 15.2297 10.0223 15.2344 12.3941 15.2344C14.8129 15.2344 14.8785 15.2297 14.9676 15.1406C15.0566 15.0516 15.0613 14.9859 15.0613 14.0391V13.0313H16.5613H18.0613V15.3938V17.7609L17.9488 17.8922L17.8363 18.0234L16.8426 18.0375L15.8535 18.0516L15.6566 18.3234C15.5488 18.4734 15.3613 18.7359 15.2395 18.9047C15.0238 19.2141 14.8973 19.3219 14.7004 19.3828L14.5926 19.4109V18.8016C14.5926 18.225 14.5879 18.1875 14.4801 18.0609L14.3676 17.9297L12.5207 17.9156C11.5082 17.9063 10.6082 17.9156 10.5238 17.9297C10.2191 17.9859 10.1863 18.0656 10.1863 18.7781V19.4109L10.0832 19.3781C9.8207 19.2984 9.7082 19.1906 9.38945 18.7219C8.8832 17.9813 9.02383 18.0469 7.95977 18.0469C7.00352 18.0469 6.81602 18.0141 6.7457 17.8359C6.73164 17.7938 6.71758 16.6922 6.71758 15.3938V13.0313H8.18945H9.66602L9.68008 14.0438ZM12.0145 13.2797C12.0145 13.4203 12.0426 13.5703 12.0848 13.6266C12.2301 13.8328 12.6051 13.8 12.7129 13.5656C12.741 13.5 12.7645 13.3547 12.7645 13.2422V13.0313H13.5379H14.3113V13.7578V14.4844H12.366H10.4207V13.7578V13.0313H11.2176H12.0145V13.2797ZM20.1613 13.4859L20.1473 13.9453L19.4816 13.9594L18.8113 13.9734V13.5V13.0313H19.491H20.1754L20.1613 13.4859ZM13.8426 19.2844C13.8426 19.8141 13.8566 19.9266 13.927 20.0063C13.9832 20.0766 14.391 20.2219 15.3426 20.5125C16.0785 20.7328 16.7066 20.9344 16.7395 20.9625C16.7816 21 16.7957 21.2813 16.7957 22.0828C16.7957 23.1328 16.7957 23.1516 16.6926 23.2219C16.5988 23.2875 16.116 23.2969 12.4035 23.2969C9.80195 23.2969 8.18008 23.2781 8.10508 23.25L7.9832 23.2031V22.0828V20.9625L8.11445 20.9156C8.18477 20.8875 8.73789 20.7141 9.34258 20.5313C10.7676 20.1047 10.8191 20.0859 10.8848 19.9406C10.9129 19.875 10.9363 19.5797 10.9363 19.2422V18.6563H12.3895H13.8426V19.2844Z" fill="#115EA3"/>
        <path d="M7.33644 15.671C7.19582 15.821 7.2005 16.0507 7.3505 16.196C7.48175 16.3319 7.60363 16.3413 7.79113 16.2429C8.00675 16.1351 8.04425 15.8538 7.86613 15.6804C7.71613 15.5257 7.47707 15.521 7.33644 15.671Z" fill="#115EA3"/>
        <path d="M8.50066 15.6844C8.37879 15.8391 8.3741 16.0359 8.49129 16.1766C8.55691 16.2609 8.62723 16.2891 8.77723 16.2891C8.92723 16.2891 8.99754 16.2609 9.06316 16.1766C9.26473 15.9281 9.09598 15.5625 8.77723 15.5625C8.6366 15.5625 8.57566 15.5906 8.50066 15.6844Z" fill="#115EA3"/>
        <path d="M15.7236 15.6703C15.597 15.8063 15.5923 16.0313 15.7095 16.1766C15.7751 16.2609 15.8454 16.2891 15.9908 16.2891C16.2204 16.2891 16.3189 16.2047 16.3564 15.975C16.3751 15.8344 16.3611 15.7828 16.2626 15.6844C16.1033 15.525 15.8642 15.5203 15.7236 15.6703Z" fill="#115EA3"/>
        <path d="M16.9118 15.6801C16.7711 15.816 16.7571 16.027 16.8836 16.177C17.0102 16.3316 17.3289 16.3316 17.4555 16.177C17.5727 16.0363 17.568 15.8395 17.4461 15.6848C17.3149 15.5207 17.0711 15.516 16.9118 15.6801Z" fill="#115EA3"/>
        <path d="M7.33243 16.8845C7.1543 17.0766 7.2293 17.3907 7.47305 17.4798C7.64649 17.536 7.81055 17.4845 7.91368 17.3345C8.0168 17.1938 8.00743 17.0532 7.89024 16.9032C7.76368 16.7438 7.47774 16.7298 7.33243 16.8845Z" fill="#115EA3"/>
        <path d="M8.50502 16.9034C8.33159 17.1237 8.39252 17.3909 8.64096 17.4799C9.02065 17.6112 9.30659 17.2174 9.05815 16.9034C8.98315 16.8096 8.92221 16.7815 8.78159 16.7815C8.64096 16.7815 8.58002 16.8096 8.50502 16.9034Z" fill="#115EA3"/>
        <path d="M15.7315 16.8881C15.544 17.085 15.6143 17.3897 15.8627 17.474C16.2377 17.6053 16.5237 17.2115 16.2799 16.9022C16.1533 16.7381 15.8768 16.7334 15.7315 16.8881Z" fill="#115EA3"/>
        <path d="M16.89 16.9034C16.6416 17.2174 16.9275 17.6112 17.3072 17.4799C17.6916 17.344 17.5791 16.7815 17.1666 16.7815C17.026 16.7815 16.965 16.8096 16.89 16.9034Z" fill="#115EA3"/>
        <path d="M10.6281 20.6906C10.5484 20.7281 10.4688 20.7891 10.45 20.8359C10.4359 20.8781 10.4219 21.2813 10.4219 21.7313C10.4219 22.4859 10.4313 22.5563 10.5156 22.6406C10.6047 22.7297 10.6703 22.7344 12.3859 22.7344H14.1672L14.2609 22.6125C14.35 22.4953 14.3594 22.425 14.3594 21.6984C14.3594 20.9344 14.3547 20.9063 14.2469 20.7797L14.1344 20.6484L12.4516 20.6391C11.1156 20.6297 10.7453 20.6391 10.6281 20.6906ZM13.6094 21.7031V22.0313H12.3906H11.1719V21.7031V21.375H12.3906H13.6094V21.7031Z" fill="#115EA3"/>
        <path d="M9.4375 1.36875C9.34844 1.46719 9.34375 1.52812 9.34375 2.91094C9.34375 4.29375 9.34844 4.35 9.44219 4.47187L9.53594 4.59375H12.3672C15.0813 4.59375 15.1984 4.58906 15.3016 4.50469L15.4141 4.41562V2.93906C15.4141 1.55156 15.4094 1.45781 15.325 1.36406C15.2359 1.26562 15.2219 1.26562 12.3859 1.26562H9.53594L9.4375 1.36875ZM14.6875 2.90625V3.84375H12.3906H10.0938V2.90625V1.96875H12.3906H14.6875V2.90625Z" fill="#115EA3"/>
    </g>
    <defs>
        <clipPath id="clip0_752_91245">
            <rect width="24" height="24" fill="white"/>
        </clipPath>
    </defs>
</svg>
